<?xml version="1.0" encoding="UTF-8" standalone="no"?>
<svg
   xmlns:dc="http://purl.org/dc/elements/1.1/"
   xmlns:cc="http://creativecommons.org/ns#"
   xmlns:rdf="http://www.w3.org/1999/02/22-rdf-syntax-ns#"
   xmlns:svg="http://www.w3.org/2000/svg"
   xmlns="http://www.w3.org/2000/svg"
   xmlns:sodipodi="http://sodipodi.sourceforge.net/DTD/sodipodi-0.dtd"
   xmlns:inkscape="http://www.inkscape.org/namespaces/inkscape"
   version="1.0"
   width="512.000000pt"
   height="512.000000pt"
   viewBox="0 0 512.000000 512.000000"
   preserveAspectRatio="xMidYMid meet"
   id="svg61"
   sodipodi:docname="no-products.svg"
   inkscape:version="1.0.2-2 (e86c870879, 2021-01-15)">
  <metadata
     id="metadata67">
    <rdf:RDF>
      <cc:Work
         rdf:about="">
        <dc:format>image/svg+xml</dc:format>
        <dc:type
           rdf:resource="http://purl.org/dc/dcmitype/StillImage" />
        <dc:title></dc:title>
      </cc:Work>
    </rdf:RDF>
  </metadata>
  <defs
     id="defs65" />
  <sodipodi:namedview
     pagecolor="#ffffff"
     bordercolor="#666666"
     borderopacity="1"
     objecttolerance="10"
     gridtolerance="10"
     guidetolerance="10"
     inkscape:pageopacity="0"
     inkscape:pageshadow="2"
     inkscape:window-width="1920"
     inkscape:window-height="1017"
     id="namedview63"
     showgrid="false"
     inkscape:zoom="0.88043082"
     inkscape:cx="190.56245"
     inkscape:cy="444.28609"
     inkscape:window-x="1912"
     inkscape:window-y="-8"
     inkscape:window-maximized="1"
     inkscape:current-layer="svg61"
     inkscape:document-rotation="0"
     showguides="false"
     inkscape:guide-bbox="true">
    <sodipodi:guide
       position="35.35201,606.55596"
       orientation="0,-1"
       id="guide914" />
  </sodipodi:namedview>
  <g
     transform="matrix(0.0882354,0,0,-0.0882354,29.080215,473.47552)"
     fill="#000000"
     stroke="none"
     id="g59"
     style="fill:#e0e0e0;fill-opacity:1">
    <path
       d="m 22,4418 c -9,-9 -12,-150 -12,-572 0,-640 -5,-598 91,-704 53,-59 81,-107 93,-155 7,-30 4,-120 -50,-1262 -19,-418 -34,-798 -32,-845 4,-100 25,-141 92,-171 54,-25 93,-24 146,3 53,28 80,62 89,114 4,22 -1,208 -10,414 -10,206 -29,627 -43,935 -14,308 -27,621 -28,695 -3,157 -1,163 95,275 33,38 66,84 73,102 11,26 14,145 14,596 0,606 1,598 -50,582 -20,-6 -20,-12 -20,-436 0,-278 -4,-437 -10,-450 -12,-21 -40,-25 -58,-7 -9,9 -12,121 -12,443 0,433 -2,455 -35,455 -40,-1 -40,-1 -45,-462 l -5,-443 h -30 -30 l -5,440 c -3,242 -9,446 -13,453 -10,15 -39,16 -55,0 -9,-9 -12,-121 -12,-444 0,-459 0,-461 -47,-452 -17,3 -18,30 -23,446 -4,379 -7,444 -20,452 -20,13 -34,12 -48,-2 z"
       id="path51"
       style="fill:#e0e0e0;fill-opacity:1" />
    <path
       d="m 5024,4410 c -38,-25 -100,-112 -148,-208 -149,-295 -242,-781 -207,-1072 21,-173 69,-300 169,-453 28,-43 54,-93 57,-110 7,-37 -5,-208 -76,-1080 -29,-357 -48,-644 -44,-665 10,-56 78,-118 137,-127 27,-4 60,-2 80,4 40,13 92,64 107,104 8,20 11,577 11,1805 0,1593 -2,1780 -16,1800 -19,27 -30,27 -70,2 z"
       id="path53"
       style="fill:#e0e0e0;fill-opacity:1" />
    <path
       d="M 2360,4359 C 1660,4280 1067,3801 844,3134 572,2322 905,1440 1650,996 c 548,-326 1273,-326 1820,0 148,89 235,157 366,288 179,179 299,354 388,566 353,837 47,1780 -734,2263 -318,196 -746,289 -1130,246 z m 461,-509 c 437,-89 796,-390 963,-806 241,-604 -2,-1298 -569,-1624 -407,-235 -903,-235 -1310,0 -330,189 -556,502 -636,883 -31,144 -31,370 0,514 120,568 568,980 1143,1053 104,13 292,4 409,-20 z"
       id="path55"
       style="fill:#e0e0e0;fill-opacity:1" />
    <path
       d="m 2352,3736 c -248,-47 -456,-157 -633,-335 -155,-155 -259,-334 -316,-548 -25,-90 -27,-114 -27,-293 0,-179 2,-203 27,-293 58,-214 161,-394 316,-548 157,-157 334,-259 548,-316 90,-25 114,-27 293,-27 178,0 203,2 290,26 218,59 394,161 551,317 156,157 258,333 317,551 24,87 26,112 26,290 0,179 -2,203 -27,293 -96,357 -347,653 -678,799 -153,67 -259,90 -449,94 -112,2 -188,-1 -238,-10 z"
       id="path57"
       style="fill:#e0e0e0;fill-opacity:1" />
  </g>
</svg>
